<mxfile host="app.diagrams.net" agent="Mozilla/5.0 (Windows NT 10.0; Win64; x64) AppleWebKit/537.36 (KHTML, like Gecko) Chrome/139.0.0.0 Safari/537.36 Edg/139.0.0.0" version="28.0.6">
  <diagram name="第 1 页" id="HitpCWTMTXedmYxgIQ-h">
    <mxGraphModel dx="1418" dy="794" grid="1" gridSize="10" guides="1" tooltips="1" connect="1" arrows="1" fold="1" page="1" pageScale="1" pageWidth="827" pageHeight="1169" math="0" shadow="0">
      <root>
        <mxCell id="0" />
        <mxCell id="1" parent="0" />
        <mxCell id="5L2cX5n1DrQC4juVN2Mq-1" value="" style="rounded=0;whiteSpace=wrap;html=1;" vertex="1" parent="1">
          <mxGeometry x="60" y="250" width="780" height="30" as="geometry" />
        </mxCell>
        <mxCell id="5L2cX5n1DrQC4juVN2Mq-2" value="" style="rounded=0;whiteSpace=wrap;html=1;" vertex="1" parent="1">
          <mxGeometry x="900" y="250" width="130" height="30" as="geometry" />
        </mxCell>
        <mxCell id="5L2cX5n1DrQC4juVN2Mq-3" value="&lt;font style=&quot;font-size: 22px;&quot;&gt;&lt;b&gt;_param_buffer_1&lt;/b&gt;&lt;/font&gt;" style="text;html=1;align=center;verticalAlign=middle;resizable=0;points=[];autosize=1;strokeColor=none;fillColor=none;" vertex="1" parent="1">
          <mxGeometry x="330" y="150" width="200" height="40" as="geometry" />
        </mxCell>
        <mxCell id="5L2cX5n1DrQC4juVN2Mq-4" value="&lt;font style=&quot;font-size: 22px;&quot;&gt;&lt;b&gt;_param_buffer_2&lt;/b&gt;&lt;/font&gt;" style="text;html=1;align=center;verticalAlign=middle;resizable=0;points=[];autosize=1;strokeColor=none;fillColor=none;" vertex="1" parent="1">
          <mxGeometry x="870" y="203" width="200" height="40" as="geometry" />
        </mxCell>
        <mxCell id="5L2cX5n1DrQC4juVN2Mq-5" value="&lt;font style=&quot;font-size: 22px;&quot;&gt;&lt;b&gt;_param_buffer_...&lt;/b&gt;&lt;/font&gt;" style="text;html=1;align=center;verticalAlign=middle;resizable=0;points=[];autosize=1;strokeColor=none;fillColor=none;" vertex="1" parent="1">
          <mxGeometry x="1085" y="203" width="210" height="40" as="geometry" />
        </mxCell>
        <mxCell id="5L2cX5n1DrQC4juVN2Mq-6" value="" style="rounded=0;whiteSpace=wrap;html=1;" vertex="1" parent="1">
          <mxGeometry x="1125" y="250" width="130" height="30" as="geometry" />
        </mxCell>
        <mxCell id="5L2cX5n1DrQC4juVN2Mq-7" value="" style="shape=curlyBracket;whiteSpace=wrap;html=1;rounded=1;labelPosition=left;verticalLabelPosition=middle;align=right;verticalAlign=middle;rotation=90;" vertex="1" parent="1">
          <mxGeometry x="646.25" y="-456.25" width="50" height="1222.5" as="geometry" />
        </mxCell>
        <mxCell id="5L2cX5n1DrQC4juVN2Mq-8" value="&lt;font style=&quot;font-size: 22px;&quot;&gt;&lt;b&gt;param_list(根据color划分成不同的buffer，每个都是FusedCommBuffer实例)&lt;/b&gt;&lt;/font&gt;" style="text;html=1;align=center;verticalAlign=middle;resizable=0;points=[];autosize=1;strokeColor=none;fillColor=none;" vertex="1" parent="1">
          <mxGeometry x="185" y="70" width="790" height="40" as="geometry" />
        </mxCell>
        <mxCell id="5L2cX5n1DrQC4juVN2Mq-10" value="&lt;font style=&quot;font-size: 22px;&quot;&gt;&lt;b&gt;param1&lt;/b&gt;&lt;/font&gt;" style="rounded=1;whiteSpace=wrap;html=1;strokeWidth=2;fillWeight=4;hachureGap=8;hachureAngle=45;fillColor=#DEE2A7;sketch=1;" vertex="1" parent="1">
          <mxGeometry x="60" y="250" width="260" height="30" as="geometry" />
        </mxCell>
        <mxCell id="5L2cX5n1DrQC4juVN2Mq-11" value="&lt;font style=&quot;font-size: 22px;&quot;&gt;&lt;b&gt;param2&lt;/b&gt;&lt;/font&gt;" style="rounded=1;whiteSpace=wrap;html=1;strokeWidth=2;fillWeight=4;hachureGap=8;hachureAngle=45;fillColor=#DEE2A7;sketch=1;" vertex="1" parent="1">
          <mxGeometry x="320" y="250" width="160" height="30" as="geometry" />
        </mxCell>
        <mxCell id="5L2cX5n1DrQC4juVN2Mq-12" value="&lt;font style=&quot;font-size: 22px;&quot;&gt;&lt;b&gt;padding&lt;/b&gt;&lt;/font&gt;" style="rounded=1;whiteSpace=wrap;html=1;strokeWidth=2;fillWeight=4;hachureGap=8;hachureAngle=45;fillColor=#e1d5e7;sketch=1;strokeColor=#9673a6;" vertex="1" parent="1">
          <mxGeometry x="480" y="250" width="100" height="30" as="geometry" />
        </mxCell>
        <mxCell id="5L2cX5n1DrQC4juVN2Mq-15" value="&lt;font style=&quot;font-size: 22px;&quot;&gt;&lt;b&gt;param3&lt;/b&gt;&lt;/font&gt;" style="rounded=1;whiteSpace=wrap;html=1;strokeWidth=2;fillWeight=4;hachureGap=8;hachureAngle=45;fillColor=#DEE2A7;sketch=1;" vertex="1" parent="1">
          <mxGeometry x="580" y="250" width="160" height="30" as="geometry" />
        </mxCell>
        <mxCell id="5L2cX5n1DrQC4juVN2Mq-16" value="&lt;font style=&quot;font-size: 22px;&quot;&gt;&lt;b&gt;padding&lt;/b&gt;&lt;/font&gt;" style="rounded=1;whiteSpace=wrap;html=1;strokeWidth=2;fillWeight=4;hachureGap=8;hachureAngle=45;fillColor=#e1d5e7;sketch=1;strokeColor=#9673a6;" vertex="1" parent="1">
          <mxGeometry x="740" y="250" width="100" height="30" as="geometry" />
        </mxCell>
        <mxCell id="5L2cX5n1DrQC4juVN2Mq-18" value="" style="endArrow=none;dashed=1;html=1;rounded=0;strokeColor=light-dark(#fa0000, #ededed);strokeWidth=5;" edge="1" parent="1">
          <mxGeometry width="50" height="50" relative="1" as="geometry">
            <mxPoint x="450" y="200" as="sourcePoint" />
            <mxPoint x="450" y="340" as="targetPoint" />
          </mxGeometry>
        </mxCell>
        <mxCell id="5L2cX5n1DrQC4juVN2Mq-19" value="&lt;font style=&quot;font-size: 22px;&quot;&gt;&lt;b&gt;rank0&lt;/b&gt;&lt;/font&gt;" style="text;html=1;align=center;verticalAlign=middle;resizable=0;points=[];autosize=1;strokeColor=none;fillColor=none;" vertex="1" parent="1">
          <mxGeometry x="210" y="390" width="80" height="40" as="geometry" />
        </mxCell>
        <mxCell id="5L2cX5n1DrQC4juVN2Mq-20" value="&lt;font style=&quot;font-size: 22px;&quot;&gt;&lt;b&gt;rank1&lt;/b&gt;&lt;/font&gt;" style="text;html=1;align=center;verticalAlign=middle;resizable=0;points=[];autosize=1;strokeColor=none;fillColor=none;" vertex="1" parent="1">
          <mxGeometry x="580" y="290" width="80" height="40" as="geometry" />
        </mxCell>
        <mxCell id="5L2cX5n1DrQC4juVN2Mq-21" value="" style="endArrow=classic;html=1;rounded=0;exitX=0;exitY=0;exitDx=0;exitDy=0;" edge="1" parent="1" source="5L2cX5n1DrQC4juVN2Mq-10">
          <mxGeometry width="50" height="50" relative="1" as="geometry">
            <mxPoint x="80" y="410" as="sourcePoint" />
            <mxPoint x="60" y="220" as="targetPoint" />
          </mxGeometry>
        </mxCell>
        <mxCell id="5L2cX5n1DrQC4juVN2Mq-22" value="&lt;font style=&quot;font-size: 16px;&quot;&gt;&lt;b style=&quot;&quot;&gt;p1_index&lt;/b&gt;&lt;/font&gt;" style="text;html=1;align=center;verticalAlign=middle;resizable=0;points=[];autosize=1;strokeColor=none;fillColor=none;" vertex="1" parent="1">
          <mxGeometry x="35" y="185" width="90" height="30" as="geometry" />
        </mxCell>
        <mxCell id="5L2cX5n1DrQC4juVN2Mq-23" value="" style="endArrow=classic;html=1;rounded=0;exitX=0;exitY=0;exitDx=0;exitDy=0;" edge="1" parent="1">
          <mxGeometry width="50" height="50" relative="1" as="geometry">
            <mxPoint x="320" y="250" as="sourcePoint" />
            <mxPoint x="320" y="220" as="targetPoint" />
          </mxGeometry>
        </mxCell>
        <mxCell id="5L2cX5n1DrQC4juVN2Mq-24" value="&lt;font style=&quot;font-size: 16px;&quot;&gt;&lt;b style=&quot;&quot;&gt;p2_index&lt;/b&gt;&lt;/font&gt;" style="text;html=1;align=center;verticalAlign=middle;resizable=0;points=[];autosize=1;strokeColor=none;fillColor=none;" vertex="1" parent="1">
          <mxGeometry x="295" y="185" width="90" height="30" as="geometry" />
        </mxCell>
        <mxCell id="5L2cX5n1DrQC4juVN2Mq-25" value="" style="endArrow=classic;html=1;rounded=0;exitX=0;exitY=0;exitDx=0;exitDy=0;" edge="1" parent="1">
          <mxGeometry width="50" height="50" relative="1" as="geometry">
            <mxPoint x="581.25" y="250" as="sourcePoint" />
            <mxPoint x="581.25" y="220" as="targetPoint" />
          </mxGeometry>
        </mxCell>
        <mxCell id="5L2cX5n1DrQC4juVN2Mq-26" value="&lt;font style=&quot;font-size: 16px;&quot;&gt;&lt;b style=&quot;&quot;&gt;p3_index&lt;/b&gt;&lt;/font&gt;" style="text;html=1;align=center;verticalAlign=middle;resizable=0;points=[];autosize=1;strokeColor=none;fillColor=none;" vertex="1" parent="1">
          <mxGeometry x="556.25" y="185" width="90" height="30" as="geometry" />
        </mxCell>
        <mxCell id="5L2cX5n1DrQC4juVN2Mq-27" value="" style="endArrow=classic;html=1;rounded=0;exitX=0;exitY=1;exitDx=0;exitDy=0;" edge="1" parent="1" source="5L2cX5n1DrQC4juVN2Mq-10">
          <mxGeometry width="50" height="50" relative="1" as="geometry">
            <mxPoint x="140" y="340" as="sourcePoint" />
            <mxPoint x="60" y="310" as="targetPoint" />
          </mxGeometry>
        </mxCell>
        <mxCell id="5L2cX5n1DrQC4juVN2Mq-28" value="&lt;font style=&quot;font-size: 16px;&quot;&gt;&lt;b style=&quot;&quot;&gt;rank0_begin&lt;/b&gt;&lt;/font&gt;" style="text;html=1;align=center;verticalAlign=middle;resizable=0;points=[];autosize=1;strokeColor=none;fillColor=none;" vertex="1" parent="1">
          <mxGeometry x="25" y="310" width="120" height="30" as="geometry" />
        </mxCell>
        <mxCell id="5L2cX5n1DrQC4juVN2Mq-29" value="" style="endArrow=classic;html=1;rounded=0;exitX=0.8;exitY=1.033;exitDx=0;exitDy=0;exitPerimeter=0;" edge="1" parent="1" source="5L2cX5n1DrQC4juVN2Mq-11">
          <mxGeometry width="50" height="50" relative="1" as="geometry">
            <mxPoint x="413" y="300" as="sourcePoint" />
            <mxPoint x="410" y="320" as="targetPoint" />
          </mxGeometry>
        </mxCell>
        <mxCell id="5L2cX5n1DrQC4juVN2Mq-30" value="&lt;font style=&quot;font-size: 16px;&quot;&gt;&lt;b style=&quot;&quot;&gt;rank0_end&lt;/b&gt;&lt;/font&gt;" style="text;html=1;align=center;verticalAlign=middle;resizable=0;points=[];autosize=1;strokeColor=none;fillColor=none;" vertex="1" parent="1">
          <mxGeometry x="314" y="310" width="100" height="30" as="geometry" />
        </mxCell>
        <mxCell id="5L2cX5n1DrQC4juVN2Mq-31" value="" style="endArrow=classic;html=1;rounded=0;" edge="1" parent="1">
          <mxGeometry width="50" height="50" relative="1" as="geometry">
            <mxPoint x="450" y="280" as="sourcePoint" />
            <mxPoint x="490" y="320" as="targetPoint" />
          </mxGeometry>
        </mxCell>
        <mxCell id="5L2cX5n1DrQC4juVN2Mq-32" value="&lt;font style=&quot;font-size: 16px;&quot;&gt;&lt;b style=&quot;&quot;&gt;rank1_begin&lt;/b&gt;&lt;/font&gt;" style="text;html=1;align=center;verticalAlign=middle;resizable=0;points=[];autosize=1;strokeColor=none;fillColor=none;" vertex="1" parent="1">
          <mxGeometry x="446.25" y="310" width="120" height="30" as="geometry" />
        </mxCell>
        <mxCell id="5L2cX5n1DrQC4juVN2Mq-33" value="" style="endArrow=classic;html=1;rounded=0;exitX=0;exitY=1;exitDx=0;exitDy=0;" edge="1" parent="1">
          <mxGeometry width="50" height="50" relative="1" as="geometry">
            <mxPoint x="840" y="280" as="sourcePoint" />
            <mxPoint x="840" y="310" as="targetPoint" />
          </mxGeometry>
        </mxCell>
        <mxCell id="5L2cX5n1DrQC4juVN2Mq-34" value="&lt;font style=&quot;font-size: 16px;&quot;&gt;&lt;b style=&quot;&quot;&gt;rank1_end&lt;/b&gt;&lt;/font&gt;" style="text;html=1;align=center;verticalAlign=middle;resizable=0;points=[];autosize=1;strokeColor=none;fillColor=none;" vertex="1" parent="1">
          <mxGeometry x="780" y="310" width="100" height="30" as="geometry" />
        </mxCell>
        <mxCell id="5L2cX5n1DrQC4juVN2Mq-36" value="" style="shape=curlyBracket;whiteSpace=wrap;html=1;rounded=1;labelPosition=left;verticalLabelPosition=middle;align=right;verticalAlign=middle;rotation=-90;" vertex="1" parent="1">
          <mxGeometry x="225" y="170" width="50" height="390" as="geometry" />
        </mxCell>
        <mxCell id="5L2cX5n1DrQC4juVN2Mq-37" value="&lt;font style=&quot;font-size: 22px;&quot;&gt;&lt;b&gt;rank1&lt;/b&gt;&lt;/font&gt;" style="text;html=1;align=center;verticalAlign=middle;resizable=0;points=[];autosize=1;strokeColor=none;fillColor=none;" vertex="1" parent="1">
          <mxGeometry x="605" y="390" width="80" height="40" as="geometry" />
        </mxCell>
        <mxCell id="5L2cX5n1DrQC4juVN2Mq-38" value="" style="shape=curlyBracket;whiteSpace=wrap;html=1;rounded=1;labelPosition=left;verticalLabelPosition=middle;align=right;verticalAlign=middle;rotation=-90;" vertex="1" parent="1">
          <mxGeometry x="620" y="170" width="50" height="390" as="geometry" />
        </mxCell>
        <mxCell id="5L2cX5n1DrQC4juVN2Mq-39" value="&lt;span style=&quot;font-size: 22px;&quot;&gt;&lt;b&gt;每个rank上都会遍历所有参数，但最终负责更新的部分从rank_begin开始，到rank_end结束&lt;/b&gt;&lt;/span&gt;" style="text;html=1;align=center;verticalAlign=middle;resizable=0;points=[];autosize=1;strokeColor=none;fillColor=none;" vertex="1" parent="1">
          <mxGeometry x="15" y="440" width="920" height="40" as="geometry" />
        </mxCell>
      </root>
    </mxGraphModel>
  </diagram>
</mxfile>
